<svg width="87" height="87" xmlns="http://www.w3.org/2000/svg" version="1.1" fill="none" stroke-linecap="square" stroke-miterlimit="10">
 <clipPath id="p.0">
  <path d="m0,0l960,0l0,540l-960,0l0,-540z" clip-rule="nonzero" id="svg_1"/>
 </clipPath>

 <g>
  <title>Layer 1</title>
  <g id="svg_9">
   <path fill="#212121" d="m0.30314,43.5l0,0c0,-23.85696 19.33991,-43.19685 43.19687,-43.19685l0,0c11.45651,0 22.44379,4.55108 30.54477,12.65207c8.10098,8.10097 12.65207,19.08826 12.65207,30.54478l0,0c0,23.85696 -19.33991,43.19685 -43.19684,43.19685l0,0c-23.85697,0 -43.19687,-19.33989 -43.19687,-43.19685z" fill-rule="evenodd" id="svg_14"/>
   <path fill="#000000" fill-opacity="0" d="m5.82283,1.35827l48,0l0,48l-48,0l0,-48z" fill-rule="evenodd" id="svg_15"/>
   <path fill="#ffffff" d="m16.65094,41.07827l0,-22.40625l6.20312,0l8.95313,14.625l-3.25,0l8.70312,-14.625l6.20313,0l0.0625,22.40625l-6.875,0l-0.0625,-12.03125l1.07812,0l-5.95312,10.01562l-3.32813,0l-6.20312,-10.01562l1.34375,0l0,12.03125l-6.875,0z" fill-rule="nonzero" id="svg_16"/>
   <path fill="#000000" fill-opacity="0" d="m33.17717,27.77821l48,0l0,48l-48,0l0,-48z" fill-rule="evenodd" id="svg_17"/>
   <path fill="#ffffff" d="m44.00529,67.49822l0,-22.40625l6.20312,0l8.95313,14.625l-3.25,0l8.70312,-14.625l6.20313,0l0.0625,22.40625l-6.875,0l-0.0625,-12.03125l1.07812,0l-5.95312,10.01562l-3.32813,0l-6.20312,-10.01562l1.34375,0l0,12.03125l-6.875,0z" fill-rule="nonzero" id="svg_18"/>
  </g>
 </g>
</svg>