<svg xmlns="http://www.w3.org/2000/svg" viewBox="0 0 512 512"><defs><style>.cls-1{fill:#979dac;}.cls-2{fill:gray;}.cls-3{fill:#006837;}.cls-4{fill:#fff;}.cls-5{fill:#48cae4;}.cls-6{fill:#fcee21;}.cls-7{fill:#fff1e6;}</style></defs><g id="Layer_2" data-name="Layer 2"><g id="Layer_1-2" data-name="Layer 1"><path class="cls-1" d="M475.93,375A249.91,249.91,0,0,1,270.5,505.57V109.32l8.75,8.76,10.38-14.53L304,110.74,309.47,98l45.45,86.9,10-12.37,27-33.42,74,207.84Z"/><path class="cls-1" d="M242.5,108.88V505.63A249.89,249.89,0,0,1,35.86,374.55L39.15,359v0l33.9-160.27,37.39,38.2,6.33,6.47L200.84,96.09l5.06,13.7,14.42-7.21,10.19,15.29Z"/><path class="cls-2" d="M54.77,404.35,85,242l35,33,69-110,17,51,40-74q-2,182-4,364A232.88,232.88,0,0,1,54.77,404.35Z"/><path class="cls-2" d="M466,396,384,198l-30,23-53-67-3,70-29-33q-2.5,158.51-5,317A244.11,244.11,0,0,0,466,396Z"/><path class="cls-3" d="M35,373l9-39,24,23h45l26,31,40-37,44,56,20-17.3V506a227.29,227.29,0,0,1-92-19C78.09,454.91,44.83,393.21,35,373Z"/><path class="cls-3" d="M476,375l-15-43-15,26-36,2-30,28-42-33-45,60-28-16V505.73a236.88,236.88,0,0,0,92-19C429.67,455.51,464.74,396.23,476,375Z"/><path d="M450.44,89.47q-7-8.2-14.73-15.79-7.48-7.38-15.56-14.13c-.62-.52-1.24-1-1.87-1.55A255.64,255.64,0,0,0,395,41c-1.18-.77-2.36-1.52-3.55-2.26A254.45,254.45,0,0,0,272,.49L270.5.41l-2-.11L265.09.16h-.59c-1.33,0-2.67-.08-4-.1s-2.67,0-4,0H256l-3.5,0c-1.33,0-2.67.05-4,.09l-.65,0c-1.12,0-2.24.07-3.35.13l-2,.1-.85,0A256.11,256.11,0,0,0,25.2,366.88q2.09,4.33,4.33,8.58a256.09,256.09,0,0,0,452.94,0q1.93-3.66,3.75-7.39a256.2,256.2,0,0,0-35.78-278.6Zm32.93,270.59c-.83,1.81-1.68,3.6-2.55,5.39-1.15,2.37-2.38,4.8-3.65,7.21-.4.75-.8,1.5-1.21,2.24l0,.06q-.85,1.57-1.74,3.15l-.65,1.15c-.44.78-.88,1.55-1.33,2.32l-.69,1.18c-.56,1-1.14,1.93-1.73,2.88s-1.15,1.89-1.74,2.83l-.24.38-1,1.61-.62,1-1.26,1.92L463,396.2c-.63.93-1.27,1.86-1.91,2.78l-1.43,2-.51.73a.72.72,0,0,0-.11.15l-.15.21-1.83,2.49c-.55.75-1.11,1.48-1.66,2.22l-.14.19-.71.93-.19.24L453,409.87l-.44.56-1.81,2.28c-1.43,1.77-2.88,3.53-4.36,5.26l-1.11,1.3c-.37.43-.74.87-1.12,1.29-.66.75-1.32,1.5-2,2.24s-1.31,1.46-2,2.18-1.26,1.37-1.91,2-1.46,1.56-2.21,2.33-1.32,1.37-2,2.05l-.25.26q-1,1-2,2l-.12.12L429.46,436l-1.14,1.1-.06.05c-.76.73-1.53,1.45-2.3,2.16s-1.6,1.49-2.42,2.21l-.31.28-1.37,1.23q-3.53,3.13-7.16,6.12l-.25.2c-.61.51-1.23,1-1.86,1.51l-.17.14c-.74.59-1.47,1.18-2.21,1.75l-.33.26c-.76.6-1.52,1.19-2.29,1.77l-.2.15c-1.19.92-2.4,1.82-3.61,2.71s-2.42,1.76-3.65,2.62h0c-.88.63-1.77,1.25-2.66,1.86l-.62.42c-1,.66-1.94,1.32-2.92,2l-.26.17c-.87.58-1.75,1.15-2.63,1.71l-1.06.68c-1,.67-2.09,1.32-3.14,2a249.12,249.12,0,0,1-116.33,36.5c-.76.05-1.51.09-2.27.12-1.4.08-2.8.13-4.2.17-1.84.07-3.69.11-5.53.12-.83,0-1.67,0-2.5,0h-1.5c-3.84,0-7.68-.13-11.5-.33l-.5,0-.5,0q-1.69-.09-3.39-.21c-1-.07-2.07-.15-3.1-.24l-1.18-.1c-1.17-.09-2.33-.2-3.49-.32l-2.55-.27-.34,0c-.88-.09-1.76-.19-2.64-.31l-2.61-.33c-.83-.11-1.65-.22-2.48-.35-.65-.09-1.3-.18-1.95-.29-1.58-.23-3.16-.49-4.74-.76l-2.29-.4c-1.15-.21-2.3-.42-3.44-.65-.89-.17-1.78-.35-2.66-.54l-.15,0-2.08-.44-1.64-.36-1.37-.31-.61-.14-2.21-.52-.93-.23-1.87-.47-1.87-.48-3.45-.93-1.61-.46c-1-.28-2-.58-3-.88s-2-.6-3-.92c-.79-.24-1.58-.5-2.36-.75l-1.31-.43c-2.29-.76-4.56-1.54-6.83-2.36s-4.5-1.67-6.73-2.55l0,0c-1-.38-2-.78-2.95-1.18l-.48-.2c-1.09-.45-2.17-.9-3.25-1.37s-2.07-.89-3.1-1.36a3.89,3.89,0,0,1-.42-.19c-.8-.35-1.6-.71-2.39-1.08l-1.24-.58c-.77-.35-1.53-.71-2.29-1.08l-1.12-.54c-.64-.31-1.28-.62-1.92-.95-1.06-.52-2.12-1.05-3.18-1.6l-2-1-1.74-.92-.56-.31c-.95-.5-1.89-1-2.82-1.54q-4.77-2.64-9.42-5.51c-.91-.56-1.81-1.12-2.7-1.69l-2-1.27-.81-.52,0,0c-.7-.45-1.41-.92-2.11-1.39q-2.62-1.74-5.21-3.57l-1.89-1.34c-.88-.63-1.74-1.25-2.6-1.89l-2.58-1.92c-.8-.6-1.59-1.21-2.38-1.83s-1.58-1.23-2.37-1.86q-2.19-1.72-4.33-3.52l-.1-.08-.3-.25L94.67,447c-.37-.31-.75-.62-1.11-.94-.76-.64-1.52-1.3-2.27-2s-1.51-1.32-2.25-2l-2.22-2-1.6-1.48,0,0c-.66-.62-1.32-1.24-2-1.87s-1-1-1.57-1.52c-1.16-1.12-2.31-2.27-3.45-3.42-.67-.67-1.33-1.34-2-2s-1.43-1.48-2.13-2.23L72,425.22c-.58-.62-1.15-1.25-1.71-1.88l-.25-.27-.13-.15-1.8-2-.38-.43-.1-.11-2.28-2.65c-.79-.93-1.57-1.86-2.34-2.8q-2.33-2.82-4.56-5.7c-.61-.79-1.22-1.59-1.82-2.39s-1-1.36-1.55-2.06l-.19-.25,0,0,0-.06,0-.05h0c-.76-1-1.51-2.07-2.26-3.11l-.1-.14c-.17-.23-.33-.47-.5-.71-.67-.94-1.33-1.89-2-2.84-.16-.21-.31-.43-.45-.65q-1.15-1.68-2.28-3.39c-.32-.47-.63-.95-.94-1.43s-.62-1-.93-1.45-.62-1-.91-1.44c-.17-.27-.35-.54-.52-.82-.54-.85-1.07-1.71-1.59-2.57-.71-1.17-1.42-2.35-2.11-3.54s-1.48-2.55-2.2-3.83-1.44-2.58-2.14-3.88c-.3-.52-.57-1.05-.85-1.57l-.18-.33c-1.42-2.68-2.84-5.5-4.22-8.37-1.15-2.39-2.27-4.8-3.33-7.22A247.45,247.45,0,0,1,6,256c0-.82,0-1.63,0-2.44,0-.54,0-1.09,0-1.63,0-.24,0-.48,0-.72,0-.63,0-1.27,0-1.9.07-2.6.17-5.19.33-7.77.06-1.13.13-2.26.21-3.38.1-1.37.21-2.73.32-4.09,0-.24,0-.49.07-.74l.18-1.94c.07-.68.13-1.36.21-2q.2-1.84.42-3.69c.55-4.58,1.23-9.14,2-13.65.24-1.35.49-2.71.75-4.06.1-.51.2-1,.31-1.52.18-.91.37-1.83.57-2.74.1-.52.21-1,.33-1.55.16-.73.32-1.46.49-2.19q.78-3.39,1.65-6.75c.15-.59.31-1.17.46-1.76.25-.95.51-1.91.78-2.86.17-.61.34-1.21.52-1.82.44-1.53.89-3,1.36-4.57.36-1.17.73-2.33,1.11-3.49,0-.11.07-.22.11-.34.21-.64.41-1.28.63-1.91.48-1.43,1-2.85,1.48-4.27.28-.79.56-1.58.85-2.36.41-1.13.84-2.26,1.28-3.39s.9-2.34,1.37-3.51q3.27-8.17,7.11-16.06c.4-.83.81-1.65,1.22-2.46q3-6,6.36-11.91l1.28-2.23A1.59,1.59,0,0,1,40,130c.43-.74.87-1.49,1.32-2.23q2.53-4.26,5.26-8.42c.64-1,1.28-2,1.93-2.91.42-.63.84-1.25,1.27-1.87.54-.79,1.08-1.58,1.64-2.36l1.2-1.69c.37-.52.74-1,1.12-1.55s.69-1,1-1.42c.56-.77,1.14-1.54,1.72-2.3Q60.89,99.5,65.58,94c.64-.74,1.27-1.48,1.92-2.22s1.29-1.47,1.94-2.2,1.36-1.52,2-2.28,1.27-1.38,1.91-2.06q4.44-4.76,9.14-9.28l.91-.88q5.72-5.46,11.77-10.54,1-.84,2-1.65c.72-.6,1.45-1.2,2.18-1.78l2.23-1.78,2.28-1.77c1-.8,2.09-1.59,3.14-2.37q5.64-4.2,11.53-8.08l3-2c1.4-.88,2.8-1.76,4.21-2.62l2.06-1.25q2.87-1.71,5.79-3.36c1.16-.65,2.32-1.29,3.49-1.92,1.51-.82,3-1.62,4.55-2.4,1.28-.67,2.57-1.32,3.86-2,2.68-1.32,5.4-2.6,8.14-3.83l1.86-.83q4.43-1.95,9-3.72l1.7-.66c1.41-.54,2.82-1.07,4.25-1.59q2.64-1,5.33-1.87l1.11-.37q6.48-2.18,13.11-4l1.56-.43,2-.52q1.44-.37,2.88-.72,3.45-.84,6.94-1.59c1.07-.23,2.14-.45,3.22-.66l3.62-.7,2.29-.41q3.44-.62,6.9-1.11l2.18-.31c1.06-.15,2.11-.29,3.18-.42l1.6-.19q2.34-.29,4.71-.51L233.37,7l2.36-.2,2.36-.18c1.28-.1,2.56-.18,3.84-.25l.45,0h.48l1.91-.1h0c.94,0,2-.09,3.19-.12h.71c1.19,0,2.38-.07,3.53-.08h6.25c.67,0,1.3,0,1.91,0l1,0,2.77.07.12,0H265l3.25.13,1.91.11h.36c.4,0,.79,0,1.16.06l3.64.25c1,.07,2,.16,2.93.24l1.8.17,1.94.19c2.07.21,4.12.45,6.17.72q.81.09,1.62.21c2.06.27,4.12.58,6.17.91l2,.34c.33.05.66.1,1,.17L301,10c2,.36,4,.74,5.93,1.15l2.71.58c.93.2,1.85.4,2.78.62l.08,0,2.72.64q5.73,1.39,11.35,3.05c.85.24,1.69.49,2.53.75l3,.94c1,.32,2,.64,3,1s2.26.76,3.38,1.15c.9.31,1.79.63,2.68,1,1.4.5,2.79,1,4.17,1.54l3.18,1.25c.9.35,1.79.71,2.68,1.08l1.37.58q2.92,1.22,5.8,2.51l3.25,1.49c1.07.5,2.15,1,3.22,1.53l3.2,1.58q3.18,1.61,6.33,3.29l3.13,1.72,3,1.72.1.06L383.72,41c1.25.73,2.49,1.49,3.72,2.25.86.53,1.72,1.07,2.57,1.62s1.6,1,2.39,1.54L394.78,48q4.26,2.84,8.4,5.87l1.89,1.39c1.21.9,2.41,1.82,3.61,2.74.91.71,1.82,1.42,2.72,2.14l2.14,1.73c1.19,1,2.37,1.94,3.54,2.92s2.05,1.75,3.07,2.64q3.68,3.21,7.25,6.57l.15.14,2.52,2.42c.88.85,1.76,1.72,2.63,2.59s1.74,1.75,2.6,2.64,1.72,1.78,2.57,2.68q1.51,1.61,3,3.24c1,1.08,2,2.18,2.95,3.28l.1.12c.66.75,1.32,1.5,2,2.26l1.92,2.27c.65.76,1.28,1.52,1.9,2.29s1.26,1.54,1.87,2.32,1.22,1.53,1.83,2.31q1.89,2.43,3.72,4.91c.51.68,1,1.35,1.49,2,.69,1,1.37,1.9,2,2.86.51.72,1,1.44,1.51,2.17s1.07,1.56,1.6,2.35q6,8.87,11.1,18.17c.4.71.79,1.42,1.17,2.14q1.38,2.55,2.7,5.13c.45.87.89,1.75,1.32,2.62,1.2,2.4,2.35,4.83,3.47,7.28.27.6.55,1.2.81,1.8l.69,1.55c.39.89.78,1.79,1.16,2.69s.76,1.8,1.13,2.7.74,1.81,1.1,2.72c.3.75.59,1.5.88,2.25q1.15,3,2.22,6c.32.89.63,1.78.94,2.68q1,2.82,1.87,5.65c.3.93.59,1.87.87,2.8.57,1.88,1.12,3.75,1.64,5.64s1,3.78,1.51,5.68q2.27,8.91,3.86,18c.13.72.26,1.44.37,2.16.17,1,.32,1.94.47,2.91.13.8.25,1.61.36,2.41s.21,1.42.3,2.14.18,1.34.27,2,.19,1.48.27,2.23c.13,1.1.26,2.2.37,3.3.19,1.78.36,3.55.51,5.34l0,.41c.05.53.09,1.07.13,1.61s.1,1.32.14,2q.12,1.75.21,3.51c0,.72.08,1.44.11,2.17s.07,1.62.1,2.44c0,1,.07,2,.09,3,0,.76,0,1.51,0,2.27q0,1.86,0,3.72A247.43,247.43,0,0,1,483.37,360.06Z"/><path class="cls-4" d="M258.5,6V506c-.83,0-1.67,0-2.5,0h-1.5V6h4Z"/><polygon class="cls-4" points="307.08 93.41 302 105.26 288.37 98.45 278.75 111.92 270.5 103.68 270.5 23.47 307.08 93.41"/><polygon class="cls-4" points="242.5 23.11 242.5 103.87 231.49 112.13 221.68 97.42 208.1 104.21 203.43 91.56 242.5 23.11"/><path class="cls-5" d="M238.09,6.64l-123.86,217L66,174.29,27.28,357.06A247.45,247.45,0,0,1,6,256C6,124.65,107.63,15.86,238.09,6.64Z"/><path class="cls-5" d="M506,256a247.43,247.43,0,0,1-22.63,104.06L396.06,114.91l-37.58,46.48-1.4,1.73-22.32-42.68L275.3,6.73A250,250,0,0,1,506,256Z"/><path d="M254.5,0V511.5h-12V.36l2-.1c1.11-.06,2.23-.1,3.35-.13h.65Q251.5.05,254.5,0Z"/><path d="M270.5.41V511.5h-12V0c2,0,4,.06,6,.1h.59L268.5.3Z"/><path d="M253.71,3.47,252.25,6,248.5,12.6l-6,10.51L203.43,91.56l-2.59,4.53L116.77,243.38l-6.33-6.47-37.39-38.2L39.15,359v0l-3.29,15.55-.46,2.15-5.87-1.24q-2.25-4.24-4.33-8.58l2.08-9.82L66,174.29l48.28,49.33,123.86-217L241.65.4l.85,0,2-.1c1.11-.06,2.23-.1,3.35-.13l.65.37Z"/><path d="M486.22,368.07q-1.82,3.74-3.75,7.39l-5.65,2-.89-2.51-10-28-74-207.84-27,33.42-10,12.37L309.47,98l-2.39-4.57L270.5,23.47,264.5,12l-3.1-5.94-1.72-3.28L264.5.26l.21-.11h.38L268.5.3l2,.11L272,.49l3.27,6.24,59.46,113.71,22.32,42.68,1.4-1.73,37.58-46.48,87.31,245.15Z"/><polygon points="248.2 104.6 242.5 108.88 230.51 117.87 220.32 102.58 205.9 109.79 200.84 96.09 197.55 87.16 201.3 85.78 203.43 91.56 208.1 104.21 221.68 97.42 231.49 112.13 242.5 103.87 245.8 101.4 248.2 104.6"/><polygon points="313.84 87.79 309.47 97.98 304 110.74 289.63 103.55 279.25 118.08 270.5 109.32 263.59 102.41 266.41 99.59 270.5 103.68 278.75 111.92 288.37 98.45 302 105.26 307.08 93.41 310.16 86.21 313.84 87.79"/><circle class="cls-6" cx="70.5" cy="88.5" r="45.5"/><rect class="cls-7" x="350" y="58" width="110" height="33" rx="16.5"/><rect class="cls-7" x="368" y="41" width="81" height="33" rx="16.5"/><rect class="cls-7" x="390" y="29" width="38" height="33" rx="16.5"/></g></g></svg>